<svg width="835" height="60" viewBox="0 0 835 60" fill="none" xmlns="http://www.w3.org/2000/svg">
<path d="M32.187 36.9751C31.8826 41.1825 30.325 44.4946 27.5142 46.9116C24.7212 49.3286 21.033 50.5371 16.4497 50.5371C11.4367 50.5371 7.48893 48.8542 4.60645 45.4883C1.74186 42.1045 0.30957 37.4674 0.30957 31.5771V29.187C0.30957 25.4272 0.972005 22.1151 2.29688 19.2505C3.62174 16.3859 5.51058 14.1927 7.96338 12.6709C10.4341 11.1312 13.2987 10.3613 16.5571 10.3613C21.0688 10.3613 24.7033 11.5698 27.4604 13.9868C30.2176 16.4038 31.811 19.7965 32.2407 24.165H24.1841C23.9871 21.6406 23.2799 19.8145 22.0625 18.6865C20.863 17.5407 19.0278 16.9678 16.5571 16.9678C13.8716 16.9678 11.8574 17.9346 10.5146 19.8682C9.18978 21.7839 8.50944 24.7648 8.47363 28.811V31.7651C8.47363 35.9904 9.10921 39.0788 10.3804 41.0303C11.6694 42.9818 13.6925 43.9575 16.4497 43.9575C18.9383 43.9575 20.7913 43.3936 22.0088 42.2656C23.2441 41.1198 23.9513 39.3563 24.1304 36.9751H32.187ZM83.3467 31.3354C83.3467 35.1847 82.6663 38.5596 81.3057 41.46C79.945 44.3604 77.9935 46.5983 75.4512 48.1738C72.9268 49.7493 70.0264 50.5371 66.75 50.5371C63.5094 50.5371 60.618 49.7583 58.0757 48.2007C55.5334 46.6431 53.564 44.423 52.1675 41.5405C50.771 38.6401 50.0638 35.3101 50.0459 31.5503V29.6167C50.0459 25.7674 50.7352 22.3836 52.1138 19.4653C53.5103 16.5291 55.4707 14.2822 57.9951 12.7246C60.5374 11.1491 63.4378 10.3613 66.6963 10.3613C69.9548 10.3613 72.8462 11.1491 75.3706 12.7246C77.9129 14.2822 79.8734 16.5291 81.252 19.4653C82.6484 22.3836 83.3467 25.7585 83.3467 29.5898V31.3354ZM75.1826 29.563C75.1826 25.4631 74.4486 22.3478 72.9805 20.2173C71.5124 18.0868 69.4176 17.0215 66.6963 17.0215C63.9928 17.0215 61.9071 18.0778 60.439 20.1904C58.9709 22.2852 58.2279 25.3646 58.21 29.4287V31.3354C58.21 35.328 58.944 38.4253 60.4121 40.6274C61.8802 42.8296 63.9928 43.9307 66.75 43.9307C69.4535 43.9307 71.5303 42.8743 72.9805 40.7617C74.4307 38.6312 75.1647 35.5339 75.1826 31.4697V29.563ZM102.602 10.8984H110.659V43.5278H126.315V10.8984H134.399V43.5278H139.743L139.206 59.4263H131.687V50H102.602V10.8984ZM181.879 10.8984H189.963V50H181.879V24.0308L166.223 50H158.166V10.8984H166.223V36.9214L181.879 10.8984ZM233.254 41.9434H219.128L216.442 50H207.875L222.431 10.8984H229.897L244.533 50H235.966L233.254 41.9434ZM221.303 35.4175H231.079L226.164 20.7812L221.303 35.4175ZM294.216 10.8984V50H286.132V17.4243H275.712L275.068 31.228C274.799 35.883 274.208 39.5532 273.295 42.2388C272.382 44.9064 271.049 46.8669 269.294 48.1201C267.539 49.3555 265.14 49.9821 262.097 50H260.002V43.5278L261.345 43.3936C263.368 43.125 264.809 41.9613 265.668 39.9023C266.546 37.8255 267.101 34.1374 267.333 28.8379L268.005 10.8984H294.216ZM323.059 24.9976H329.343C333.944 24.9976 337.587 26.1165 340.273 28.3545C342.976 30.5745 344.328 33.5734 344.328 37.3511C344.328 41.1466 342.985 44.1992 340.3 46.5088C337.632 48.8005 334.078 49.9642 329.638 50H314.948V10.8984H323.059V24.9976ZM323.059 31.4966V43.5278H329.477C331.536 43.5278 333.174 42.9639 334.392 41.8359C335.627 40.708 336.245 39.1951 336.245 37.2974C336.245 35.5249 335.654 34.1284 334.472 33.1079C333.308 32.0695 331.706 31.5324 329.665 31.4966H323.059ZM395.004 50H386.948V33.2422H371.237V50H363.181V10.8984H371.237V26.7432H386.948V10.8984H395.004V50ZM424.008 24.9976H430.292C434.894 24.9976 438.537 26.1165 441.223 28.3545C443.926 30.5745 445.278 33.5734 445.278 37.3511C445.278 41.1466 443.935 44.1992 441.25 46.5088C438.582 48.8005 435.028 49.9642 430.588 50H415.898V10.8984H424.008V24.9976ZM456.691 50H448.635V10.8984H456.691V50ZM424.008 31.4966V43.5278H430.427C432.486 43.5278 434.124 42.9639 435.341 41.8359C436.577 40.708 437.194 39.1951 437.194 37.2974C437.194 35.5249 436.604 34.1284 435.422 33.1079C434.258 32.0695 432.656 31.5324 430.615 31.4966H424.008ZM500.976 10.8984H509.06V50H500.976V24.0308L485.319 50H477.263V10.8984H485.319V36.9214L500.976 10.8984ZM502.534 0.612793C502.534 2.99398 501.674 4.91862 499.956 6.38672C498.255 7.85482 496.017 8.58887 493.242 8.58887C490.467 8.58887 488.22 7.86377 486.501 6.41357C484.8 4.96338 483.95 3.02979 483.95 0.612793H489.455C489.455 1.74072 489.786 2.618 490.449 3.24463C491.129 3.85335 492.06 4.15771 493.242 4.15771C494.405 4.15771 495.319 3.85335 495.981 3.24463C496.643 2.618 496.975 1.74072 496.975 0.612793H502.534ZM589.089 50H581.005V17.4243H565.349V50H557.292V10.8984H589.089V50ZM617.985 36.2231V50H609.929V10.8984H625.183C628.119 10.8984 630.697 11.4355 632.917 12.5098C635.155 13.584 636.874 15.1147 638.073 17.1021C639.273 19.0715 639.873 21.3184 639.873 23.8428C639.873 27.6742 638.557 30.6999 635.925 32.9199C633.311 35.1221 629.685 36.2231 625.048 36.2231H617.985ZM617.985 29.6973H625.183C627.313 29.6973 628.933 29.196 630.043 28.1934C631.171 27.1908 631.735 25.7585 631.735 23.8965C631.735 21.9808 631.171 20.4321 630.043 19.2505C628.916 18.0688 627.358 17.4601 625.371 17.4243H617.985V29.6973ZM691.301 31.3354C691.301 35.1847 690.62 38.5596 689.26 41.46C687.899 44.3604 685.948 46.5983 683.405 48.1738C680.881 49.7493 677.98 50.5371 674.704 50.5371C671.464 50.5371 668.572 49.7583 666.03 48.2007C663.487 46.6431 661.518 44.423 660.122 41.5405C658.725 38.6401 658.018 35.3101 658 31.5503V29.6167C658 25.7674 658.689 22.3836 660.068 19.4653C661.464 16.5291 663.425 14.2822 665.949 12.7246C668.492 11.1491 671.392 10.3613 674.65 10.3613C677.909 10.3613 680.8 11.1491 683.325 12.7246C685.867 14.2822 687.827 16.5291 689.206 19.4653C690.603 22.3836 691.301 25.7585 691.301 29.5898V31.3354ZM683.137 29.563C683.137 25.4631 682.403 22.3478 680.935 20.2173C679.466 18.0868 677.372 17.0215 674.65 17.0215C671.947 17.0215 669.861 18.0778 668.393 20.1904C666.925 22.2852 666.182 25.3646 666.164 29.4287V31.3354C666.164 35.328 666.898 38.4253 668.366 40.6274C669.834 42.8296 671.947 43.9307 674.704 43.9307C677.408 43.9307 679.484 42.8743 680.935 40.7617C682.385 38.6312 683.119 35.5339 683.137 31.4697V29.563ZM734.431 33.0542H718.962V43.5278H737.116V50H710.905V10.8984H737.062V17.4243H718.962V26.7432H734.431V33.0542ZM768.349 34.021H763.703V50H755.646V10.8984H763.703V26.5552H767.382L776.943 10.8984H786.772L774.714 29.4019L788.034 50H778.42L768.349 34.021ZM834.333 17.4243H822.355V50H814.299V17.4243H802.482V10.8984H834.333V17.4243Z" fill="black"/>
</svg>
