<svg width="816" height="503" viewBox="0 0 816 503" fill="none" xmlns="http://www.w3.org/2000/svg">
<path d="M38.9438 480.449C38.6506 484.503 37.1496 487.695 34.4409 490.024C31.7495 492.353 28.1955 493.518 23.7788 493.518C18.9481 493.518 15.1439 491.896 12.3662 488.652C9.60579 485.392 8.22559 480.923 8.22559 475.247V472.944C8.22559 469.321 8.86393 466.129 10.1406 463.369C11.4173 460.608 13.2375 458.495 15.6011 457.028C17.9819 455.545 20.7424 454.803 23.8823 454.803C28.23 454.803 31.7323 455.967 34.3892 458.296C37.0461 460.625 38.5815 463.895 38.9956 468.104H31.2319C31.0422 465.672 30.3607 463.912 29.1875 462.825C28.0316 461.721 26.2632 461.169 23.8823 461.169C21.2944 461.169 19.3535 462.101 18.0596 463.964C16.7829 465.81 16.1273 468.682 16.0928 472.582V475.428C16.0928 479.5 16.7052 482.476 17.9302 484.356C19.1724 486.237 21.1219 487.177 23.7788 487.177C26.1769 487.177 27.9626 486.634 29.1357 485.547C30.3262 484.443 31.0076 482.743 31.1802 480.449H38.9438ZM88.2432 475.014C88.2432 478.723 87.5876 481.976 86.2764 484.771C84.9652 487.565 83.0846 489.722 80.6348 491.24C78.2021 492.758 75.4072 493.518 72.25 493.518C69.1273 493.518 66.341 492.767 63.8911 491.266C61.4412 489.765 59.5435 487.626 58.1978 484.848C56.8521 482.053 56.1706 478.844 56.1533 475.221V473.358C56.1533 469.649 56.8175 466.388 58.146 463.576C59.4917 460.746 61.3809 458.581 63.8135 457.08C66.2633 455.562 69.0583 454.803 72.1982 454.803C75.3382 454.803 78.1245 455.562 80.5571 457.08C83.007 458.581 84.8962 460.746 86.2246 463.576C87.5703 466.388 88.2432 469.64 88.2432 473.332V475.014ZM80.376 473.306C80.376 469.355 79.6686 466.353 78.2539 464.3C76.8392 462.247 74.8206 461.221 72.1982 461.221C69.5931 461.221 67.5832 462.239 66.1685 464.274C64.7537 466.293 64.0378 469.26 64.0205 473.177V475.014C64.0205 478.861 64.7279 481.846 66.1426 483.968C67.5573 486.09 69.5931 487.151 72.25 487.151C74.8551 487.151 76.8564 486.133 78.2539 484.098C79.6514 482.045 80.3587 479.06 80.376 475.144V473.306ZM106.798 455.32H114.562V486.763H129.649V455.32H137.439V486.763H142.589L142.071 502.083H134.825V493H106.798V455.32ZM183.193 455.32H190.982V493H183.193V467.975L168.105 493H160.342V455.32H168.105V480.397L183.193 455.32ZM232.699 485.236H219.087L216.499 493H208.244L222.27 455.32H229.464L243.568 493H235.313L232.699 485.236ZM221.183 478.948H230.603L225.867 464.844L221.183 478.948ZM291.444 455.32V493H283.655V461.609H273.614L272.993 474.911C272.734 479.396 272.165 482.933 271.285 485.521C270.405 488.092 269.119 489.981 267.429 491.188C265.738 492.379 263.426 492.983 260.493 493H258.475V486.763L259.769 486.634C261.718 486.375 263.107 485.254 263.935 483.27C264.78 481.268 265.315 477.714 265.54 472.607L266.187 455.32H291.444ZM319.238 468.907H325.294C329.728 468.907 333.239 469.985 335.827 472.142C338.432 474.281 339.734 477.171 339.734 480.811C339.734 484.469 338.44 487.41 335.853 489.636C333.282 491.844 329.857 492.965 325.579 493H311.423V455.32H319.238V468.907ZM319.238 475.169V486.763H325.423C327.407 486.763 328.986 486.22 330.159 485.133C331.35 484.046 331.945 482.588 331.945 480.759C331.945 479.051 331.375 477.706 330.237 476.722C329.115 475.722 327.571 475.204 325.604 475.169H319.238ZM388.568 493H380.804V476.852H365.665V493H357.901V455.32H365.665V470.589H380.804V455.32H388.568V493ZM416.517 468.907H422.573C427.007 468.907 430.518 469.985 433.105 472.142C435.711 474.281 437.013 477.171 437.013 480.811C437.013 484.469 435.719 487.41 433.131 489.636C430.561 491.844 427.136 492.965 422.857 493H408.702V455.32H416.517V468.907ZM448.012 493H440.248V455.32H448.012V493ZM416.517 475.169V486.763H422.702C424.686 486.763 426.265 486.22 427.438 485.133C428.628 484.046 429.224 482.588 429.224 480.759C429.224 479.051 428.654 477.706 427.516 476.722C426.394 475.722 424.85 475.204 422.883 475.169H416.517ZM490.686 455.32H498.476V493H490.686V467.975L475.599 493H467.835V455.32H475.599V480.397L490.686 455.32ZM492.187 445.409C492.187 447.703 491.359 449.558 489.703 450.973C488.064 452.387 485.907 453.095 483.233 453.095C480.559 453.095 478.394 452.396 476.737 450.999C475.098 449.601 474.279 447.738 474.279 445.409H479.584C479.584 446.496 479.903 447.341 480.542 447.945C481.197 448.531 482.094 448.825 483.233 448.825C484.354 448.825 485.234 448.531 485.873 447.945C486.511 447.341 486.83 446.496 486.83 445.409H492.187ZM575.595 493H567.805V461.609H552.718V493H544.954V455.32H575.595V493ZM603.44 479.724V493H595.677V455.32H610.376C613.205 455.32 615.69 455.838 617.829 456.873C619.986 457.908 621.642 459.383 622.798 461.298C623.954 463.196 624.532 465.361 624.532 467.794C624.532 471.486 623.264 474.402 620.728 476.541C618.209 478.663 614.715 479.724 610.247 479.724H603.44ZM603.44 473.436H610.376C612.429 473.436 613.99 472.952 615.06 471.986C616.147 471.02 616.69 469.64 616.69 467.846C616.69 466 616.147 464.507 615.06 463.369C613.973 462.23 612.472 461.643 610.557 461.609H603.44V473.436ZM674.09 475.014C674.09 478.723 673.434 481.976 672.123 484.771C670.812 487.565 668.931 489.722 666.481 491.24C664.049 492.758 661.254 493.518 658.097 493.518C654.974 493.518 652.188 492.767 649.738 491.266C647.288 489.765 645.39 487.626 644.044 484.848C642.699 482.053 642.017 478.844 642 475.221V473.358C642 469.649 642.664 466.388 643.993 463.576C645.338 460.746 647.228 458.581 649.66 457.08C652.11 455.562 654.905 454.803 658.045 454.803C661.185 454.803 663.971 455.562 666.404 457.08C668.854 458.581 670.743 460.746 672.071 463.576C673.417 466.388 674.09 469.64 674.09 473.332V475.014ZM666.223 473.306C666.223 469.355 665.515 466.353 664.101 464.3C662.686 462.247 660.667 461.221 658.045 461.221C655.44 461.221 653.43 462.239 652.015 464.274C650.6 466.293 649.884 469.26 649.867 473.177V475.014C649.867 478.861 650.575 481.846 651.989 483.968C653.404 486.09 655.44 487.151 658.097 487.151C660.702 487.151 662.703 486.133 664.101 484.098C665.498 482.045 666.205 479.06 666.223 475.144V473.306ZM715.651 476.67H700.745V486.763H718.239V493H692.981V455.32H718.188V461.609H700.745V470.589H715.651V476.67ZM748.336 477.602H743.859V493H736.096V455.32H743.859V470.408H747.405L756.618 455.32H766.089L754.47 473.151L767.306 493H758.041L748.336 477.602ZM811.921 461.609H800.379V493H792.615V461.609H781.229V455.32H811.921V461.609Z" fill="black"/>
<path d="M74.52 131.88C61.2 131.88 49.2 129.12 38.52 123.6C27.84 117.96 19.44 110.16 13.32 100.2C7.32 90.12 4.32 78.72 4.32 66C4.32 53.28 7.32 41.94 13.32 31.98C19.44 21.9 27.84 14.1 38.52 8.57999C49.2 2.94 61.2 0.119996 74.52 0.119996C86.76 0.119996 97.68 2.28 107.28 6.6C116.88 10.92 124.8 17.16 131.04 25.32L104.22 49.26C96.42 39.42 87.24 34.5 76.68 34.5C67.8 34.5 60.66 37.38 55.26 43.14C49.86 48.78 47.16 56.4 47.16 66C47.16 75.6 49.86 83.28 55.26 89.04C60.66 94.68 67.8 97.5 76.68 97.5C87.24 97.5 96.42 92.58 104.22 82.74L131.04 106.68C124.8 114.84 116.88 121.08 107.28 125.4C97.68 129.72 86.76 131.88 74.52 131.88ZM240.895 64.2L278.155 129H230.275L206.155 83.46H194.275V129H151.795V2.99999H194.275V49.98H207.235L234.055 2.99999H278.335L240.895 64.2ZM381.225 107.04H333.345L324.885 129H281.685L336.765 2.99999H378.525L433.605 129H389.685L381.225 107.04ZM369.525 76.44L357.285 44.76L345.045 76.44H369.525ZM570.327 83.46H559.347V129H517.947V83.46H506.607L485.727 129H436.947L470.787 62.76L438.747 2.99999H483.027L505.527 49.98H517.947V2.99999H559.347V49.98H571.047L593.907 2.99999H638.187L606.327 62.76L639.987 129H591.207L570.327 83.46ZM657.648 2.99999H699.408V68.52L742.788 2.99999H782.748V129H740.988V63.66L697.788 129H657.648V2.99999ZM74.52 276.88C61.2 276.88 49.2 274.12 38.52 268.6C27.84 262.96 19.44 255.16 13.32 245.2C7.32 235.12 4.32 223.72 4.32 211C4.32 198.28 7.32 186.94 13.32 176.98C19.44 166.9 27.84 159.1 38.52 153.58C49.2 147.94 61.2 145.12 74.52 145.12C86.76 145.12 97.68 147.28 107.28 151.6C116.88 155.92 124.8 162.16 131.04 170.32L104.22 194.26C96.42 184.42 87.24 179.5 76.68 179.5C67.8 179.5 60.66 182.38 55.26 188.14C49.86 193.78 47.16 201.4 47.16 211C47.16 220.6 49.86 228.28 55.26 234.04C60.66 239.68 67.8 242.5 76.68 242.5C87.24 242.5 96.42 237.58 104.22 227.74L131.04 251.68C124.8 259.84 116.88 266.08 107.28 270.4C97.68 274.72 86.76 276.88 74.52 276.88ZM249.715 207.94C256.795 210.46 262.195 214.24 265.915 219.28C269.635 224.2 271.495 230.26 271.495 237.46C271.495 248.74 266.995 257.68 257.995 264.28C249.115 270.76 236.515 274 220.195 274H152.875V148H216.775C232.375 148 244.435 150.88 252.955 156.64C261.595 162.4 265.915 170.5 265.915 180.94C265.915 186.94 264.475 192.22 261.595 196.78C258.835 201.34 254.875 205.06 249.715 207.94ZM194.635 196.42H212.635C219.595 196.42 223.075 193.36 223.075 187.24C223.075 180.88 219.595 177.7 212.635 177.7H194.635V196.42ZM218.215 244.3C225.175 244.3 228.655 240.94 228.655 234.22C228.655 227.74 225.175 224.5 218.215 224.5H194.635V244.3H218.215ZM359.724 276.88C346.164 276.88 333.984 274.06 323.184 268.42C312.384 262.78 303.924 254.98 297.804 245.02C291.684 234.94 288.624 223.6 288.624 211C288.624 198.4 291.684 187.12 297.804 177.16C303.924 167.08 312.384 159.22 323.184 153.58C333.984 147.94 346.164 145.12 359.724 145.12C373.284 145.12 385.464 147.94 396.264 153.58C407.064 159.22 415.524 167.08 421.644 177.16C427.764 187.12 430.824 198.4 430.824 211C430.824 223.6 427.764 234.94 421.644 245.02C415.524 254.98 407.064 262.78 396.264 268.42C385.464 274.06 373.284 276.88 359.724 276.88ZM359.724 242.5C365.004 242.5 369.744 241.24 373.944 238.72C378.264 236.08 381.684 232.42 384.204 227.74C386.724 222.94 387.984 217.36 387.984 211C387.984 204.64 386.724 199.12 384.204 194.44C381.684 189.64 378.264 185.98 373.944 183.46C369.744 180.82 365.004 179.5 359.724 179.5C354.444 179.5 349.644 180.82 345.324 183.46C341.124 185.98 337.764 189.64 335.244 194.44C332.724 199.12 331.464 204.64 331.464 211C331.464 217.36 332.724 222.94 335.244 227.74C337.764 232.42 341.124 236.08 345.324 238.72C349.644 241.24 354.444 242.5 359.724 242.5ZM559.873 241.96V274H455.113V148H557.533V180.04H496.873V194.8H550.153V225.4H496.873V241.96H559.873ZM74.52 421.88C61.2 421.88 49.2 419.12 38.52 413.6C27.84 407.96 19.44 400.16 13.32 390.2C7.32 380.12 4.32 368.72 4.32 356C4.32 343.28 7.32 331.94 13.32 321.98C19.44 311.9 27.84 304.1 38.52 298.58C49.2 292.94 61.2 290.12 74.52 290.12C86.76 290.12 97.68 292.28 107.28 296.6C116.88 300.92 124.8 307.16 131.04 315.32L104.22 339.26C96.42 329.42 87.24 324.5 76.68 324.5C67.8 324.5 60.66 327.38 55.26 333.14C49.86 338.78 47.16 346.4 47.16 356C47.16 365.6 49.86 373.28 55.26 379.04C60.66 384.68 67.8 387.5 76.68 387.5C87.24 387.5 96.42 382.58 104.22 372.74L131.04 396.68C124.8 404.84 116.88 411.08 107.28 415.4C97.68 419.72 86.76 421.88 74.52 421.88ZM273.002 293V419H231.242V325.94H202.442L202.082 340.52C201.602 358.52 200.162 373.28 197.762 384.8C195.362 396.32 191.162 405.32 185.162 411.8C179.162 418.16 170.582 421.34 159.422 421.34C153.782 421.34 147.782 420.56 141.422 419L143.582 384.98C145.142 385.34 146.702 385.52 148.262 385.52C152.702 385.52 156.062 383.72 158.342 380.12C160.742 376.52 162.362 371.72 163.202 365.72C164.042 359.72 164.642 351.86 165.002 342.14L166.622 293H273.002ZM368.338 421.88C354.778 421.88 342.598 419.06 331.798 413.42C320.998 407.78 312.538 399.98 306.418 390.02C300.298 379.94 297.238 368.6 297.238 356C297.238 343.4 300.298 332.12 306.418 322.16C312.538 312.08 320.998 304.22 331.798 298.58C342.598 292.94 354.778 290.12 368.338 290.12C381.898 290.12 394.078 292.94 404.878 298.58C415.678 304.22 424.138 312.08 430.258 322.16C436.378 332.12 439.438 343.4 439.438 356C439.438 368.6 436.378 379.94 430.258 390.02C424.138 399.98 415.678 407.78 404.878 413.42C394.078 419.06 381.898 421.88 368.338 421.88ZM368.338 387.5C373.618 387.5 378.358 386.24 382.558 383.72C386.878 381.08 390.298 377.42 392.818 372.74C395.338 367.94 396.598 362.36 396.598 356C396.598 349.64 395.338 344.12 392.818 339.44C390.298 334.64 386.878 330.98 382.558 328.46C378.358 325.82 373.618 324.5 368.338 324.5C363.058 324.5 358.258 325.82 353.938 328.46C349.738 330.98 346.378 334.64 343.858 339.44C341.338 344.12 340.078 349.64 340.078 356C340.078 362.36 341.338 367.94 343.858 372.74C346.378 377.42 349.738 381.08 353.938 383.72C358.258 386.24 363.058 387.5 368.338 387.5ZM560.566 352.94C567.646 355.46 573.046 359.24 576.766 364.28C580.486 369.2 582.346 375.26 582.346 382.46C582.346 393.74 577.846 402.68 568.846 409.28C559.966 415.76 547.366 419 531.046 419H463.726V293H527.626C543.226 293 555.286 295.88 563.806 301.64C572.446 307.4 576.766 315.5 576.766 325.94C576.766 331.94 575.326 337.22 572.446 341.78C569.686 346.34 565.726 350.06 560.566 352.94ZM505.486 341.42H523.486C530.446 341.42 533.926 338.36 533.926 332.24C533.926 325.88 530.446 322.7 523.486 322.7H505.486V341.42ZM529.066 389.3C536.026 389.3 539.506 385.94 539.506 379.22C539.506 372.74 536.026 369.5 529.066 369.5H505.486V389.3H529.066ZM670.576 421.88C657.016 421.88 644.836 419.06 634.036 413.42C623.236 407.78 614.776 399.98 608.656 390.02C602.536 379.94 599.476 368.6 599.476 356C599.476 343.4 602.536 332.12 608.656 322.16C614.776 312.08 623.236 304.22 634.036 298.58C644.836 292.94 657.016 290.12 670.576 290.12C684.136 290.12 696.316 292.94 707.116 298.58C717.916 304.22 726.376 312.08 732.496 322.16C738.616 332.12 741.676 343.4 741.676 356C741.676 368.6 738.616 379.94 732.496 390.02C726.376 399.98 717.916 407.78 707.116 413.42C696.316 419.06 684.136 421.88 670.576 421.88ZM670.576 387.5C675.856 387.5 680.596 386.24 684.796 383.72C689.116 381.08 692.536 377.42 695.056 372.74C697.576 367.94 698.836 362.36 698.836 356C698.836 349.64 697.576 344.12 695.056 339.44C692.536 334.64 689.116 330.98 684.796 328.46C680.596 325.82 675.856 324.5 670.576 324.5C665.296 324.5 660.496 325.82 656.176 328.46C651.976 330.98 648.616 334.64 646.096 339.44C643.576 344.12 642.316 349.64 642.316 356C642.316 362.36 643.576 367.94 646.096 372.74C648.616 377.42 651.976 381.08 656.176 383.72C660.496 386.24 665.296 387.5 670.576 387.5ZM758.765 293H807.365L799.265 370.76H766.865L758.765 293ZM783.065 420.8C776.105 420.8 770.405 418.7 765.965 414.5C761.525 410.3 759.305 405.2 759.305 399.2C759.305 393.08 761.525 388.04 765.965 384.08C770.405 380 776.105 377.96 783.065 377.96C790.025 377.96 795.725 380 800.165 384.08C804.605 388.04 806.825 393.08 806.825 399.2C806.825 405.2 804.605 410.3 800.165 414.5C795.725 418.7 790.025 420.8 783.065 420.8Z" fill="white"/>
</svg>
