<svg width="1757" height="917" viewBox="0 0 1757 917" fill="none" xmlns="http://www.w3.org/2000/svg">
<path fill-rule="evenodd" clip-rule="evenodd" d="M855.683 294.67L854.363 293.349L853.923 295.11L852.604 299.071L852.384 299.731L853.043 300.171L855.243 301.932L856.343 302.592L856.783 301.492L858.323 298.631L858.763 297.971L858.103 297.531L855.683 294.67Z" stroke="#00C2FF"/>
<path fill-rule="evenodd" clip-rule="evenodd" d="M858.543 285.207L858.323 288.508V289.168L858.763 289.388L861.182 290.929L862.062 291.589L862.722 290.488L864.042 288.068L864.482 287.187L863.602 286.747L860.083 284.327L858.543 283.446V285.207Z" stroke="#00C2FF"/>
<path fill-rule="evenodd" clip-rule="evenodd" d="M868.441 119.496V120.377L869.101 120.597L873.721 121.917H873.941H874.161L879.22 120.597L880.54 120.377L879.88 119.276L877.02 112.674L876.8 112.454V112.234L873.061 109.373L872.181 108.713L871.521 109.373L869.101 111.794L868.661 112.234V112.454L868.222 116.635V116.855L868.441 119.496Z" stroke="#00C2FF"/>
<path fill-rule="evenodd" clip-rule="evenodd" d="M862.502 283.006V283.226L862.722 283.446L865.362 285.427L866.242 286.087L866.902 285.207L869.321 281.686L869.761 281.026L868.881 280.365L865.142 277.504L864.482 277.064L863.822 277.504L861.842 279.045L861.182 279.485L861.402 280.145L862.502 283.006Z" stroke="#00C2FF"/>
<path fill-rule="evenodd" clip-rule="evenodd" d="M898.357 223.588L898.577 224.028L899.017 224.248L904.077 227.109L905.616 227.989L905.836 226.229L906.056 222.268V221.828L905.836 221.387L902.537 217.426L901.657 216.766L900.997 217.426L898.357 219.407L897.917 219.847L898.137 220.507L898.357 223.588Z" stroke="#00C2FF"/>
<path fill-rule="evenodd" clip-rule="evenodd" d="M849.744 153.387L850.184 153.607H850.624L855.463 153.827H856.563V152.506L856.343 148.325V147.885L856.123 147.665L852.604 143.264L852.164 142.603L851.504 142.823L847.324 144.804L846.884 145.024L846.664 145.464L846.005 148.765V149.425L846.225 149.866L849.744 153.387Z" stroke="#00C2FF"/>
<path fill-rule="evenodd" clip-rule="evenodd" d="M853.703 246.475L853.483 247.355L852.384 249.776L852.164 250.436L852.604 250.876L854.803 253.957L855.463 255.058L856.343 253.957L858.763 251.537L858.983 251.317V250.876L859.203 248.016V246.915H858.103L854.583 246.695L853.703 246.475Z" stroke="#00C2FF"/>
<path fill-rule="evenodd" clip-rule="evenodd" d="M807.07 106.732L806.63 105.852L804.87 100.351L804.65 99.9104L804.21 99.6903L797.831 97.0495L797.171 96.8295L796.731 97.2696L791.232 101.891L790.792 102.331V102.771L790.572 106.512V106.953L791.012 107.393L795.631 111.574L796.071 112.014L796.731 111.794L806.19 107.173L807.07 106.732Z" stroke="#00C2FF"/>
<path fill-rule="evenodd" clip-rule="evenodd" d="M817.408 312.715L816.968 312.275L813.669 310.515L812.789 310.074L812.129 310.955L808.39 316.676L807.95 317.337L808.39 317.997L813.229 324.379L813.889 325.039L814.549 324.599L818.068 323.278L818.728 322.838L818.508 322.178L817.628 313.155L817.408 312.715Z" stroke="#00C2FF"/>
<path fill-rule="evenodd" clip-rule="evenodd" d="M844.685 262.98H844.905L847.764 264.961L848.204 265.401L848.864 264.961L853.043 262.54L853.923 261.88L853.483 261L851.064 256.818L850.844 256.598L850.404 256.378L846.884 255.498L846.224 255.278L845.785 255.718L842.485 258.579L841.605 259.239L842.265 260.119L844.685 262.98Z" stroke="#00C2FF"/>
<path fill-rule="evenodd" clip-rule="evenodd" d="M801.571 318.437L800.251 319.097L794.312 322.398H794.092L793.872 322.838L792.332 325.919L791.672 327.02L792.772 327.46L797.611 329.22H797.831H798.271L803.11 328.34L804.21 328.12L803.99 327.02L801.791 319.757L801.571 318.437Z" stroke="#00C2FF"/>
<path fill-rule="evenodd" clip-rule="evenodd" d="M809.269 101.671L808.83 102.551L807.73 104.972V105.412V105.632L808.83 110.694L809.049 111.354H809.929L819.168 111.134H819.828L820.268 110.694L824.007 104.532L824.227 103.872L824.007 103.431L820.928 98.1499L820.048 96.8295L818.948 98.1499L815.429 103.431L810.149 101.891L809.269 101.671Z" stroke="#00C2FF"/>
<path fill-rule="evenodd" clip-rule="evenodd" d="M850.624 290.709L849.964 290.489L846.444 289.608L845.784 289.388L845.344 290.048L843.145 294.23L842.705 294.89L843.365 295.33L847.324 299.071L847.984 299.731L851.504 296.43L851.944 295.99L851.724 295.33L850.624 291.369V290.709Z" stroke="#00C2FF"/>
<path fill-rule="evenodd" clip-rule="evenodd" d="M822.468 273.103V273.763L821.808 276.624V277.064L822.028 277.505L824.447 280.806L825.327 281.686L826.207 280.806L828.847 277.945L829.287 277.505L829.067 277.064L827.967 272.663L827.527 271.563L826.647 271.783L823.128 272.883L822.468 273.103Z" stroke="#00C2FF"/>
<path fill-rule="evenodd" clip-rule="evenodd" d="M819.608 90.0073L819.828 91.1076L820.928 90.6675L824.887 89.127L825.987 88.6869L825.547 87.8066L824.007 82.525L823.567 81.2046L822.468 82.0849L818.728 84.5056L818.068 84.9457L818.288 85.6059L819.608 90.0073Z" stroke="#00C2FF"/>
<path fill-rule="evenodd" clip-rule="evenodd" d="M954.45 151.846L954.01 155.147L952.25 155.807L950.05 147.225L949.61 146.125L948.511 146.565L934.652 153.387L934.212 153.607V154.047L929.153 166.371V166.591L928.933 166.811V170.552V171.432L929.593 171.652L934.432 173.853L943.451 181.775H943.671L953.79 188.818L954.45 189.038L954.89 188.818L959.949 186.177L960.389 185.957L960.609 185.296L961.709 178.474V177.814L961.269 177.594L957.969 173.413L962.149 166.591L962.369 166.371V166.151L962.809 158.008V157.568L962.589 157.128L956.209 151.186L954.67 149.646L954.45 151.846Z" stroke="#00C2FF"/>
<path fill-rule="evenodd" clip-rule="evenodd" d="M1185.86 204.222V204.662L1186.08 204.882L1190.48 210.384L1192.24 216.766L1192.46 217.426H1192.9L1202.36 220.067L1202.58 220.287H1202.8L1211.37 219.407H1212.47V218.306L1211.81 210.384L1216.87 211.044H1217.53L1217.75 210.604L1222.37 203.122L1227.43 204.222L1227.87 204.442L1228.31 203.782L1232.27 199.601L1232.93 198.72L1232.27 198.06L1228.31 194.099H1228.09L1227.87 193.879L1219.73 191.678L1214.23 185.076L1217.31 184.416L1222.15 191.458L1222.37 191.898H1222.81L1232.27 193.879L1233.37 194.099V192.779L1233.59 181.995V181.555V181.335L1230.51 176.054L1230.07 175.613H1229.63L1218.41 174.733H1217.97L1217.75 174.953L1212.25 178.914L1203.9 177.374H1202.8L1202.58 178.474L1201.92 184.416L1201.7 184.856L1202.14 185.296L1206.76 190.138L1205.22 192.118L1197.52 185.737L1197.3 185.296L1196.86 185.516L1186.52 186.397H1185.64V187.277L1184.98 195.64V195.86L1185.86 204.222Z" stroke="#00C2FF"/>
<path fill-rule="evenodd" clip-rule="evenodd" d="M1232.05 143.484L1233.15 143.704L1233.37 142.823L1235.13 138.202L1235.35 137.322L1234.47 136.882L1229.85 135.121L1228.75 134.901L1228.53 136.001L1226.99 141.283L1226.77 142.383L1227.87 142.603L1232.05 143.484Z" stroke="#00C2FF"/>
<path fill-rule="evenodd" clip-rule="evenodd" d="M1233.15 228.65V240.533L1234.47 240.313L1245.91 237.892H1246.13V237.672L1256.69 232.171L1257.79 231.731L1257.35 230.85L1253.61 222.488L1253.39 222.048H1252.73L1245.91 220.947L1240.63 219.847L1239.97 219.627L1239.53 220.287L1235.57 226.009L1233.59 228.43L1233.15 228.65Z" stroke="#00C2FF"/>
<path fill-rule="evenodd" clip-rule="evenodd" d="M1226.99 217.206L1226.33 217.866L1223.47 220.727L1223.03 221.167V221.827L1225.01 230.63L1225.23 231.51H1231.61L1231.83 230.63L1232.71 222.708V222.048L1232.27 221.607L1227.65 217.866L1226.99 217.206Z" stroke="#00C2FF"/>
<path fill-rule="evenodd" clip-rule="evenodd" d="M1240.41 180.235L1240.63 180.895H1241.29L1263.07 181.115H1263.73L1263.95 180.455L1270.33 168.791L1270.55 168.351L1270.33 167.911L1266.15 158.888L1265.49 157.568L1264.39 158.668L1260.21 163.29L1251.85 162.63H1251.19L1250.75 163.29L1248.77 166.811H1243.49V167.691L1242.83 171.652L1237.99 171.432H1236.23L1236.89 172.973L1240.41 180.235Z" stroke="#00C2FF"/>
<path fill-rule="evenodd" clip-rule="evenodd" d="M915.955 156.468L916.175 156.908L916.395 157.128L923.874 162.189L924.534 162.629L924.974 162.409L930.253 159.549L930.693 159.328V158.888L932.453 153.387L932.673 152.726L933.333 152.506L948.071 145.904L948.73 145.684V139.963L954.01 137.102L954.89 136.662L954.45 135.561L952.47 131.16L948.95 121.037L948.73 120.817L948.51 120.597L942.131 114.875L941.251 114.215L940.592 114.875L934.872 120.597L929.373 124.338L928.713 124.778L928.933 125.438L930.253 131.82L924.534 139.522L924.314 139.742V145.244L924.754 145.464L932.233 152.286L931.793 152.066L920.354 147.885L919.914 147.665L919.474 147.885L915.295 150.306L914.635 150.526V151.406L915.955 156.468Z" stroke="#00C2FF"/>
<path fill-rule="evenodd" clip-rule="evenodd" d="M1391.97 190.578L1392.63 190.798L1393.07 190.578L1397.25 188.157L1397.91 187.717L1397.69 186.837L1396.15 181.775L1395.93 180.895L1395.05 181.115L1390.21 181.995L1389.55 182.215L1389.33 182.656L1388.01 186.837L1387.57 187.717L1388.45 188.157L1391.97 190.578Z" stroke="#00C2FF"/>
<path fill-rule="evenodd" clip-rule="evenodd" d="M1206.98 240.533L1206.1 240.313L1195.1 238.773L1193.12 238.552L1194 240.313L1196.2 245.375V245.815H1196.64L1201.7 249.116L1201.92 249.336L1202.58 249.116L1206.76 248.015L1207.64 247.795V246.915L1207.2 241.193L1206.98 240.533Z" stroke="#00C2FF"/>
<path fill-rule="evenodd" clip-rule="evenodd" d="M1466.54 61.1786L1467.42 62.2789L1468.08 61.3987L1470.94 58.5378L1471.16 58.3177V58.0977L1474.46 41.3726L1478.42 33.4501L1478.86 33.01L1478.42 32.3498L1474.02 26.408L1473.58 25.7478L1472.92 25.9679L1461.7 26.8481H1461.26L1460.82 27.2883L1454.22 37.4114L1454 37.6314V46.214L1454.22 46.6542L1466.54 61.1786Z" stroke="#00C2FF"/>
<path fill-rule="evenodd" clip-rule="evenodd" d="M809.709 95.289L809.049 94.6288L805.75 91.5479L804.87 90.6676L804.21 91.5479L800.911 95.9492L800.031 96.8295L801.131 97.4897L805.09 99.4703L805.97 99.9104L806.41 99.2502L809.049 96.1693L809.709 95.289Z" stroke="#00C2FF"/>
<path fill-rule="evenodd" clip-rule="evenodd" d="M939.932 233.711L940.592 233.271L943.451 231.511L944.331 231.07L943.891 229.97L941.911 225.569L941.251 224.468L940.372 225.129L935.312 228.43L933.992 229.31L935.092 230.19L939.272 233.271L939.932 233.711Z" stroke="#00C2FF"/>
<path fill-rule="evenodd" clip-rule="evenodd" d="M932.893 235.472L932.233 236.792L930.253 240.753L930.693 241.193L932.673 243.394L933.552 244.274L934.212 243.394L936.852 241.193L937.512 240.533L936.852 239.653L933.992 236.572L932.893 235.472Z" stroke="#00C2FF"/>
<path fill-rule="evenodd" clip-rule="evenodd" d="M926.953 122.797L928.713 123.238L928.273 121.477L925.854 113.335L925.414 112.674H924.754L917.275 112.894H916.175V113.775L915.515 119.716L915.295 120.597L916.395 120.817L926.953 122.797Z" stroke="#00C2FF"/>
<path fill-rule="evenodd" clip-rule="evenodd" d="M1175.74 210.164V210.384L1175.96 210.604L1181.9 217.426L1182.34 218.086L1183 217.646L1186.74 216.326L1187.84 215.886L1187.18 214.785L1182.78 206.863V206.423H1182.34L1175.96 202.462L1173.76 201.141L1174.42 203.562L1175.74 210.164Z" stroke="#00C2FF"/>
<path fill-rule="evenodd" clip-rule="evenodd" d="M1046.62 285.207L1046.4 286.087L1043.76 292.469L1043.54 293.129L1043.98 293.789L1050.8 299.071L1051.68 299.731L1052.34 298.631L1055.42 294.009V293.789V293.569L1056.52 289.608L1056.74 288.948L1056.08 288.508L1052.34 286.087H1052.12H1051.9L1047.5 285.427L1046.62 285.207Z" stroke="#00C2FF"/>
<path fill-rule="evenodd" clip-rule="evenodd" d="M995.584 201.581V202.242L996.244 202.462L1004.16 204.222L1005.7 204.442L1005.48 202.902L1005.04 200.041V199.381L1004.6 199.161L996.684 194.319L995.584 193.659L995.144 194.979L994.704 196.74L994.484 196.96L994.704 197.18L995.584 201.581Z" stroke="#00C2FF"/>
<path fill-rule="evenodd" clip-rule="evenodd" d="M957.529 200.921L957.749 201.361L960.169 209.724L960.389 211.264L961.709 210.164L971.607 202.462L981.726 201.581H982.166L987.885 195.86L988.325 195.64V195.199L988.985 182.216V181.775L988.765 181.555L982.826 174.073L982.166 172.973L981.286 173.853L977.107 178.034L975.347 176.494L975.787 169.232V167.251L974.247 168.131L965.668 172.753L965.008 173.193V173.633L963.908 189.478L957.749 200.481L957.529 200.921Z" stroke="#00C2FF"/>
<path fill-rule="evenodd" clip-rule="evenodd" d="M783.313 93.0883L783.533 93.3084H783.753L792.112 96.1692L793.432 96.6094L793.652 95.289L794.751 88.907V88.2468L794.312 88.0268L785.953 80.3244L785.293 79.8843L784.633 80.3244L777.814 84.9458L776.934 85.606L777.594 86.4863L783.313 93.0883Z" stroke="#00C2FF"/>
<path fill-rule="evenodd" clip-rule="evenodd" d="M1721.26 569.093L1719.95 568.433L1719.73 569.974L1719.07 574.815V575.035L1719.29 575.255L1721.48 580.317L1721.92 581.197L1722.8 580.757L1728.96 577.896L1729.4 577.676L1729.62 577.236L1730.5 574.155L1730.72 573.275L1729.84 572.834L1721.26 569.093Z" stroke="#00C2FF"/>
<path fill-rule="evenodd" clip-rule="evenodd" d="M1730.72 627.851L1730.28 628.511L1728.08 632.913L1727.86 633.573L1728.3 634.013L1730.5 637.754L1730.94 638.634L1731.82 638.194L1735.12 637.094L1735.56 636.874L1735.78 636.214L1736.44 630.052L1736.66 629.171L1735.56 628.951L1731.38 628.071L1730.72 627.851Z" stroke="#00C2FF"/>
<path fill-rule="evenodd" clip-rule="evenodd" d="M1723.46 558.97L1723.24 558.31L1722.36 545.106V544.666L1721.92 544.446L1718.19 540.925L1717.97 540.705H1717.75L1713.79 539.604L1712.47 539.164V540.485L1711.37 553.689L1711.15 554.129L1711.59 554.569L1716.65 561.171L1717.09 561.831L1717.97 561.611L1722.8 559.19L1723.46 558.97Z" stroke="#00C2FF"/>
<path fill-rule="evenodd" clip-rule="evenodd" d="M406.944 257.478L406.724 257.258L404.305 255.498L403.425 254.838L402.765 255.718L401.005 258.139L400.785 258.359V258.579L400.565 260.999V261.44L400.785 261.88L402.985 264.3L403.645 264.961L404.525 264.52L407.384 262.32L408.044 262.1L407.824 261.219L406.944 257.698V257.478Z" stroke="#00C2FF"/>
<path fill-rule="evenodd" clip-rule="evenodd" d="M1040.46 301.272L1039.8 301.052H1035.18L1034.52 300.832L1034.08 301.492L1031.66 305.453H1031.44V305.673L1030.78 308.314V308.754L1031 309.194L1033.2 311.835L1033.64 312.495L1034.52 312.055L1042 307.434L1042.66 306.993L1042.44 306.333L1040.68 301.932L1040.46 301.272Z" stroke="#00C2FF"/>
<path fill-rule="evenodd" clip-rule="evenodd" d="M1732.26 608.705L1732.04 608.265H1731.6L1728.96 607.825L1728.08 607.605L1727.86 608.265L1725.44 612.666L1725.22 613.327L1725.66 613.767L1728.96 618.828L1729.62 619.929L1730.72 619.048L1734.9 614.867L1735.34 614.427L1735.12 613.767L1732.26 608.705Z" stroke="#00C2FF"/>
<path fill-rule="evenodd" clip-rule="evenodd" d="M1707.85 535.423L1706.97 536.083L1702.13 539.164L1701.47 539.604L1701.69 540.264L1702.35 543.565V544.006L1702.79 544.226L1707.19 547.087L1708.29 547.747L1708.73 546.646L1710.93 541.145V540.705L1710.71 540.264L1708.29 536.303L1707.85 535.423Z" stroke="#00C2FF"/>
<path fill-rule="evenodd" clip-rule="evenodd" d="M1638.78 321.298L1634.38 320.638L1633.5 320.418L1633.28 321.298L1629.98 331.421L1629.76 332.081L1630.2 332.521L1642.74 346.826L1644.5 348.586L1644.72 346.165L1646.48 325.479V324.819L1645.82 324.599L1639 321.298H1638.78Z" stroke="#00C2FF"/>
<path fill-rule="evenodd" clip-rule="evenodd" d="M1719.07 531.022L1718.41 530.362L1717.53 531.022L1715.77 532.782L1715.33 533.002V533.442L1714.67 536.523L1714.45 537.404L1715.33 537.844L1720.17 539.604L1720.83 539.824L1721.27 539.384L1723.68 536.523L1724.56 535.643L1723.68 534.983L1719.07 531.022Z" stroke="#00C2FF"/>
<path fill-rule="evenodd" clip-rule="evenodd" d="M1737.32 357.829L1737.1 357.389L1736.44 357.169L1726.98 356.068H1726.76L1717.97 358.269L1716.43 358.489L1717.31 359.809L1720.61 364.871L1721.05 365.311H1721.48L1734.24 367.512H1734.46L1734.9 367.292L1739.96 364.651L1741.06 364.211L1740.4 363.11L1737.32 357.829Z" stroke="#00C2FF"/>
<path fill-rule="evenodd" clip-rule="evenodd" d="M1703.23 749.108L1702.79 748.888L1702.35 749.108L1698.17 751.089H1697.95V751.309L1695.53 753.069L1695.09 753.509L1695.31 754.17L1697.29 760.552L1696.41 768.914V769.134L1696.63 769.354L1698.61 774.856L1698.83 775.956L1699.93 775.516L1702.13 774.636L1702.57 774.416V773.756L1703.45 759.231L1705.87 756.37L1706.09 756.15V755.93L1706.53 751.969V751.309L1706.09 750.869L1703.23 749.108Z" stroke="#00C2FF"/>
<path fill-rule="evenodd" clip-rule="evenodd" d="M1753.6 347.706L1749.86 346.826L1749.42 346.606L1749.2 346.826L1739.74 350.347L1738.2 351.007L1739.3 352.107L1743.92 356.729L1744.58 357.389L1745.24 356.729L1754.04 349.466L1755.58 348.146L1753.6 347.706Z" stroke="#00C2FF"/>
<path fill-rule="evenodd" clip-rule="evenodd" d="M1737.54 644.356L1737.32 643.916L1736.88 643.696L1732.26 642.376L1731.6 642.156L1731.16 642.596L1727.86 646.337L1727.42 646.777L1727.64 647.437L1730.28 654.699L1730.5 655.58L1731.6 655.36L1739.52 653.159L1740.62 652.939L1740.18 651.839L1737.54 644.356Z" stroke="#00C2FF"/>
<path fill-rule="evenodd" clip-rule="evenodd" d="M1717.97 717.418L1721.04 712.577L1721.26 712.137V711.697L1719.95 706.195L1719.73 705.535H1718.85L1714.67 705.315L1713.57 705.095V706.415L1714.01 710.156L1711.59 712.357H1711.37L1706.31 717.859L1705.87 718.079V718.519L1706.31 731.283V731.503L1707.85 741.846V742.286L1708.51 742.506L1710.27 743.386L1711.81 744.267V742.726L1712.69 736.784L1713.79 728.862L1714.23 722.92L1717.97 717.418Z" stroke="#00C2FF"/>
<path fill-rule="evenodd" clip-rule="evenodd" d="M1721.04 756.59L1720.82 756.37V756.15L1718.41 753.069L1717.75 751.969L1716.87 752.849L1714.67 755.05L1714.23 755.27V755.71V759.451V759.671V759.891L1715.55 763.192L1715.99 764.073L1717.09 763.853L1721.26 762.312L1722.14 762.092L1721.92 760.992L1721.04 756.59Z" stroke="#00C2FF"/>
<path fill-rule="evenodd" clip-rule="evenodd" d="M1731.16 678.907V678.687L1730.94 678.467L1727.64 672.965L1726.76 671.865L1725.88 672.745L1721.92 676.706L1721.48 677.146V677.586L1721.71 685.949L1721.92 694.752L1722.14 698.713V699.813H1728.08L1728.52 698.933L1731.82 689.03L1732.04 688.81L1731.82 688.59L1731.16 678.907Z" stroke="#00C2FF"/>
<path fill-rule="evenodd" clip-rule="evenodd" d="M740.859 66.4603L741.079 66.9004L741.299 67.1205L745.258 70.2014L745.698 70.4215H746.138L751.417 69.9813L754.717 72.6221L755.377 73.2823L750.977 73.9425H750.757L747.898 75.0429L741.959 73.5024L740.859 73.0623L740.639 74.3827L740.199 79.0041V79.6643L740.419 79.8843L744.818 84.0656L748.998 89.3472L749.878 90.6676L750.757 89.3472L752.077 86.7064L752.297 86.4863L752.077 86.0462L751.197 81.8649L755.817 80.9847L762.856 83.1853L763.296 83.4054L763.956 82.9653L768.575 78.3439L769.235 77.6837L768.575 76.8034L764.396 71.9619L764.176 71.7419H763.956L760.436 70.4215L759.776 70.2014L759.336 70.4215L755.817 73.2823H755.377L756.037 72.4021L758.456 69.7613L759.116 69.1011L758.237 68.2208L753.837 64.2596L753.397 63.8194L752.737 64.0395L749.218 65.1399L741.079 60.0783L738.879 58.5378L739.539 61.1786L740.859 66.4603Z" stroke="#00C2FF"/>
<path fill-rule="evenodd" clip-rule="evenodd" d="M772.315 85.606L771.435 87.3665L769.895 89.5672L769.675 90.0073L769.895 90.2274L770.775 94.1886L771.215 95.729L772.535 94.6287L774.954 92.8682L775.614 92.428L775.174 91.5478L773.194 87.3665L772.315 85.606Z" stroke="#00C2FF"/>
<path fill-rule="evenodd" clip-rule="evenodd" d="M769.015 73.5022L769.675 74.6026L770.555 73.7223L774.074 70.2012L773.194 69.541L768.795 65.3598L767.695 64.4795L767.035 65.7999L765.935 68.4407L765.715 69.1009L765.935 69.541L769.015 73.5022Z" stroke="#00C2FF"/>
<path fill-rule="evenodd" clip-rule="evenodd" d="M804.87 75.483L805.09 75.7031L807.29 77.6837L807.95 78.3439L808.83 77.6837L811.689 75.483L812.569 74.8228L811.689 73.9426L807.51 69.9814L806.85 69.3212L806.19 69.7613L803.99 71.7419L803.11 72.182L803.55 73.0623L804.87 75.483Z" stroke="#00C2FF"/>
<path fill-rule="evenodd" clip-rule="evenodd" d="M772.974 99.9104L772.754 100.13L770.335 103.652L769.675 104.532L770.335 105.192L773.854 108.493L774.734 109.153L775.394 108.493L779.134 105.412L778.034 106.512L777.374 107.393L778.254 108.053L780.893 110.254L781.553 110.694L781.993 110.474L786.833 108.053L787.272 107.833V107.173L788.592 101.671L788.812 100.571L787.932 100.351L784.413 99.4702L783.533 99.2502L783.313 99.9104L780.673 103.211L780.453 102.771L778.034 99.2502L777.594 98.59L776.934 98.81L773.414 99.6903L772.974 99.9104Z" stroke="#00C2FF"/>
<path fill-rule="evenodd" clip-rule="evenodd" d="M788.592 117.956L789.032 117.296L788.812 116.636L786.613 112.894L785.733 111.574L784.853 112.894L782.213 115.975L781.773 116.636L782.213 117.296L784.633 120.817L785.513 121.917L786.393 120.817L788.592 117.956Z" stroke="#00C2FF"/>
<path fill-rule="evenodd" clip-rule="evenodd" d="M793.432 81.2047L793.652 81.6448L793.872 81.8649L798.491 84.7257L799.371 85.3859L799.811 84.5057L802.45 80.3244L802.89 79.8843L802.67 79.4441L800.251 74.3826L799.591 73.5023L798.711 73.9424L793.432 76.5833L792.552 77.0234L792.772 77.9037L793.432 81.2047Z" stroke="#00C2FF"/>
<path fill-rule="evenodd" clip-rule="evenodd" d="M782.873 299.291L782.213 299.511L778.914 300.612L778.034 300.832L778.254 301.932L779.574 306.113V306.773H780.453L784.413 307.214L785.293 307.434L785.513 306.553L786.173 303.913L786.393 303.252L785.953 302.812L783.313 299.951L782.873 299.291Z" stroke="#00C2FF"/>
<path fill-rule="evenodd" clip-rule="evenodd" d="M767.035 88.4669L766.595 87.3666L765.495 88.0268L759.556 91.1077L758.456 91.5478L759.116 92.6482L762.856 99.0301L763.516 100.351L764.616 99.2502L769.015 95.0689L769.455 94.6288L769.235 93.9686L767.035 88.4669Z" stroke="#00C2FF"/>
<path fill-rule="evenodd" clip-rule="evenodd" d="M554.544 293.129L554.984 293.569H555.424L567.083 293.789H567.963L568.182 293.129L569.502 288.728V288.508V288.288L568.842 281.906V281.466L568.402 281.246L562.243 274.424L561.803 273.983L561.143 274.203L552.345 277.284L551.905 277.504L551.685 277.945L549.485 285.647L549.265 286.087L549.705 286.527L554.544 293.129Z" stroke="#00C2FF"/>
<path fill-rule="evenodd" clip-rule="evenodd" d="M1719.51 529.481L1719.29 527.281L1717.09 498.452L1714.01 485.248V485.028L1713.79 484.808L1704.55 475.565L1705.43 462.361L1710.05 458.62L1710.93 457.959L1710.27 457.079L1694.21 438.373L1694.43 426.05L1701.03 418.788L1701.47 418.347L1701.25 417.907L1699.49 410.425L1699.27 409.765L1698.61 409.545L1685.19 405.584L1671.77 381.816L1673.53 380.716L1677.27 385.998L1677.93 386.878L1678.81 386.438L1685.63 382.036L1686.73 381.376L1685.63 380.496L1675.07 370.373L1674.41 369.933L1673.75 370.373L1668.47 373.234L1659.89 367.732L1659.67 367.512V367.292L1655.49 357.169L1655.27 356.509H1644.28L1644.06 357.389L1643.18 363.111L1638.78 362.67L1619.64 324.379L1620.74 313.155L1627.78 311.615L1628.88 311.395L1628.66 310.294L1623.6 290.268L1633.5 298.191L1635.26 299.511V297.311L1635.48 270.242L1644.72 260.779L1659.01 260.559H1660.55L1659.89 259.019L1651.53 238.773L1647.58 194.979V194.099V193.879L1644.72 162.85V162.189L1644.28 161.969L1637.24 158.008L1656.15 144.804L1656.81 144.364L1656.59 143.704L1653.73 134.241L1653.51 133.581H1652.85L1614.36 129.839H1613.7L1613.26 130.28L1608.86 136.001L1598.96 136.882H1598.08L1597.86 137.762L1596.76 144.804L1590.38 144.364V134.901L1599.18 132.04L1599.62 131.82L1599.84 131.38L1603.58 123.678L1603.8 123.458V123.237L1601.82 102.771V102.111L1601.16 101.891L1597.42 100.351L1596.98 100.13L1596.54 100.351L1593.46 102.331L1593.24 96.6094V95.0689L1591.92 95.509L1583.78 98.59L1578.5 92.6482L1580.26 83.8455L1586.42 89.1271L1587.08 89.7873L1587.74 89.1271L1591.26 86.2662L1596.98 92.4281L1598.08 93.7485L1598.74 92.208L1602.48 83.6254V83.4053V83.1853L1601.6 73.5023L1607.76 68.4408L1619.42 69.5411H1619.86L1620.3 69.3211L1640.32 54.1364L1641.2 53.4762L1640.54 52.596L1637.46 49.0749L1644.72 50.1752L1646.04 50.3953V49.0749L1645.82 39.3919V38.0715L1644.5 38.2916L1634.38 40.0521L1631.52 33.8903L1631.3 33.4501H1630.86L1617.88 30.8093L1622.5 25.0876L1623.38 24.2073L1622.5 23.5471L1616.12 18.9257L1621.84 14.9645L1622.72 14.3043L1622.06 13.424L1613.48 2.20061L1612.82 1.54041L1611.94 1.98054L1587.52 16.2849L1587.08 16.505V16.9451L1585.76 28.3886L1579.38 36.7511L1578.5 37.8515L1579.82 38.2916L1593.9 44.0133L1587.52 46.8742L1561.57 39.8321L1561.13 39.612L1560.69 39.8321L1529.89 60.2983L1483.92 85.1659L1483.7 85.3859L1483.48 85.606L1471.16 105.632L1470.94 106.072V106.512L1471.82 111.574L1464.34 113.555H1464.12L1463.9 113.775L1452.02 124.338L1451.8 125.438L1452.46 126.318L1460.82 136.662L1461.26 137.322L1461.92 137.102L1468.96 134.901L1479.08 140.623L1478.2 150.306L1468.74 151.406H1468.52L1468.3 151.626L1461.92 155.367L1447.84 146.565L1446.3 145.464V165.49L1431.78 176.274L1431.56 176.494L1431.34 176.714L1425.63 187.717L1425.19 188.597V188.817V189.038L1422.33 194.539L1407.59 202.902L1396.59 192.559L1396.37 192.339H1395.93L1384.49 191.238H1384.05L1383.83 191.458L1367.55 202.021H1367.33L1367.11 202.242L1355.89 216.106L1355.67 216.326V216.546L1351.72 229.97L1345.12 231.951L1336.32 227.549L1336.1 227.329H1335.88L1327.08 228.209H1326.64L1326.42 228.65L1322.46 233.711L1319.38 231.07L1318.5 230.41L1317.84 231.07L1314.76 234.371L1311.68 231.51L1319.16 224.028L1316.74 223.808L1301.34 222.708H1300.9L1300.46 222.928L1291.66 230.63L1291.22 231.07L1291.44 231.731L1296.06 247.795L1289.46 254.177V242.734H1281.98L1281.77 242.954L1277.15 247.135L1276.27 242.954L1284.62 235.252L1286.82 233.271L1283.74 233.491L1274.29 234.151H1274.07H1273.85L1245.69 248.456L1244.59 249.116L1245.47 250.216L1250.31 256.158L1243.05 263.2L1242.39 263.86L1242.83 264.521L1245.91 270.242L1246.35 271.123L1247.23 270.682L1251.63 268.482L1252.07 275.304V275.744L1252.29 275.964L1258.01 282.786L1248.99 284.987H1248.55L1248.33 285.207L1245.25 289.608L1244.81 290.048L1245.03 290.709L1247.45 296.43L1240.41 297.531L1229.19 294.23L1228.09 294.01L1227.87 295.11L1224.79 306.993L1206.32 303.692L1205 303.472V332.301L1192.68 330.321L1172.66 312.275L1179.26 307.654L1180.14 306.993L1179.48 306.113L1166.5 286.967L1166.28 286.747L1166.06 286.527L1157.7 282.566L1157.26 282.346L1156.82 282.566L1144.5 286.747L1130.87 281.466L1129.55 281.026L1129.33 282.346L1127.35 303.472L1102.93 313.816L1094.35 307.874L1095.67 303.472L1096.11 302.152H1094.79L1068.61 301.932H1068.17L1067.95 302.372L1061.14 311.615L1060.92 311.835V312.055L1060.48 313.816L1059.6 309.414V308.974L1059.38 308.754L1054.54 304.353L1053.66 303.692L1053 304.353L1047.28 310.294L1040.02 313.816L1039.58 314.036L1039.14 314.256L1038.48 314.476L1031 318.217L1022.64 324.599L1010.98 327.9L1010.54 328.12L1010.32 328.56L1007.9 332.961L1008.12 326.139L1031.66 301.712V301.492L1044.86 277.725V277.504V277.284L1050.8 255.938L1051.02 255.278L1050.58 254.838L1032.1 233.931L1031.88 233.491H1031.44L1014.28 232.831H1013.62L1013.18 233.271L1007.46 241.413L1002.84 242.294L1007.46 229.31L1007.9 227.989L1006.58 227.769L994.264 226.229L997.784 221.167L998.444 220.287L997.784 219.627L989.205 212.365L988.765 211.925L988.105 212.145L980.406 215.005L980.186 215.226L979.966 215.446L967.648 233.931L967.428 234.371L967.648 234.811L970.288 244.494L958.409 245.375H957.309V246.475L957.529 249.996V250.216L957.749 250.436L961.049 255.498L954.23 253.957L953.79 253.737L953.35 254.177L948.95 258.359L939.272 256.598L937.952 252.417L937.732 251.537H936.852L921.454 251.757H920.354V252.857L920.574 260.779L902.757 263.2H902.537L902.317 263.42L889.999 273.323L880.54 273.543H880.1L879.88 273.763L872.621 280.145L872.401 280.365V280.805L869.321 293.789V294.23L869.541 294.67L874.821 304.353L867.122 306.333L842.925 302.372L828.847 302.152H828.187L827.967 302.812L823.568 310.515L823.348 310.735V310.955L822.688 330.981V331.421L823.128 331.641L831.926 340.004L835.446 348.366H825.327L814.989 329.22L814.769 328.56H814.109L806.41 329H805.97H805.53L799.811 329.44H799.151L798.931 330.101L796.511 338.683L788.372 331.201L787.053 330.101L786.613 331.641L783.973 340.444L783.753 341.104L784.193 341.544L794.092 352.107L794.532 358.709L778.474 344.405L778.034 334.942L785.513 325.699L785.733 325.479V325.039L786.833 309.854L787.053 308.094L785.513 308.754L782.433 310.294L781.993 310.515L781.773 310.955L778.034 321.078L772.755 325.919L767.035 327.68H766.595L766.375 327.9L758.896 336.703L758.676 336.923V337.363L758.896 359.81L745.038 381.596L744.818 381.816V382.256L745.698 395.681V396.781H760.656L771.875 410.205V422.969L763.736 432.652L763.296 433.092L763.516 433.752L765.716 438.373L765.935 438.594L766.155 438.814L770.335 441.234L761.756 443.215L758.676 431.771L767.695 416.147L767.915 415.707L767.695 415.266L763.736 403.163L763.516 402.503H762.856L748.778 400.522H748.338L747.898 400.962L740.199 408.444L739.979 408.664V409.105L739.099 425.61L726.561 438.373L715.122 442.555H714.902L714.682 442.775L707.203 450.697L681.467 434.852V429.131L697.965 436.833L698.405 437.053L698.845 436.833L708.303 433.092L723.481 423.409L723.701 423.189L723.921 422.969L734.26 402.283L734.48 402.062V401.842L732.72 390.839L750.098 349.466L752.077 342.204V341.984V341.764L750.098 332.961L761.096 322.398L761.316 322.178V321.738L763.516 306.553V306.113L763.296 305.673L755.597 295.33L762.856 294.45L763.956 294.23L763.736 293.129L762.416 282.126V281.246H761.536L752.517 280.585H751.417V281.686L750.758 289.828V290.048V290.268L751.857 292.909L748.338 291.589L747.678 291.369L747.238 291.809L738.659 298.411V298.631L728.321 311.835L720.622 319.317L708.743 322.178H708.523L708.303 322.398L701.924 328.34L701.264 329L701.924 329.66L707.863 337.363L701.484 348.806L692.465 351.447L691.806 351.667V352.327L691.586 356.729V357.169L691.806 357.609L699.725 365.751L697.085 373.234L696.865 373.454V373.894L698.405 378.955V379.175V379.396L701.044 383.137L692.026 391.499L689.386 387.318L686.526 375.214V374.994V374.774L675.308 356.729L675.088 356.288L674.868 355.848L669.369 345.725L655.071 330.321L654.851 329.88H642.532L642.312 330.761L640.773 337.143L640.553 345.945L633.734 350.127L629.774 349.246L629.114 349.026L628.674 349.686L626.474 352.987L622.955 350.127L628.234 345.285L628.674 345.065V337.143H627.574L607.557 336.923L597.878 329.66L597.658 329.44H597.218L582.261 330.761L578.301 325.259L585.56 324.599H586.22L586.44 324.159L591.279 314.696L591.939 313.375L590.619 313.155L578.301 310.294L577.641 310.074L577.201 310.515L572.362 316.236L570.162 312.495L569.942 312.055L569.502 311.835L537.827 304.133L537.167 303.913L533.427 307.654L529.688 304.133L529.028 303.692L528.368 304.133L512.31 313.595L504.831 306.333L507.251 299.511L507.471 299.071L507.251 298.631L505.051 292.249L513.85 289.388L522.869 295.77L523.749 296.43L524.408 295.55L529.028 288.068L529.248 287.848V287.628L529.028 274.203V273.763L528.808 273.543L516.27 259.679L514.95 258.359L514.51 260.119L510.99 273.323L494.053 284.327L493.613 284.547V284.987L492.293 293.349L484.814 300.171L484.374 300.612L483.934 301.052L483.494 301.492L475.795 308.314L472.935 301.492L477.335 300.612L478.655 300.391L477.995 299.071L470.736 285.647L470.296 284.987L469.636 285.207L459.077 286.967L448.299 283.226H448.079H447.859L434.441 285.207H433.781L433.561 285.867L426.522 303.472L422.342 301.052L414.863 283.446L415.963 269.582V268.262L414.643 268.482L402.105 270.022H401.445L401.225 270.682L397.706 282.786L397.486 283.226L397.926 283.666L402.765 289.608L398.586 295.11L391.547 291.149L390.227 281.906V281.246V280.805L389.567 276.184L390.447 272.443V272.003L390.227 271.563L386.927 266.941L390.007 261.22L400.345 248.236L408.924 245.375L409.364 245.155L409.584 244.714L414.643 235.912V235.692V235.472L416.623 222.488V222.048L416.843 220.727L418.823 208.624L420.583 211.044L419.263 220.947V221.167L419.483 221.387L423.662 230.41L424.762 245.375V245.595L424.982 245.815L430.921 254.838L432.241 264.08V264.521L432.681 264.741L455.118 278.165L455.558 278.385H455.998L469.856 275.744H470.296L470.516 275.304L480.854 261.22L481.074 260.999V260.779L483.934 245.815V245.595V245.375L479.315 227.769L479.974 202.021V201.801V201.581L477.115 192.118V191.898V191.678L470.076 180.455L468.976 172.533L470.736 171.432L474.475 176.714L475.135 177.594L476.015 176.934L480.414 174.073L481.294 173.633L480.854 172.753L476.895 165.05L476.675 164.83L476.455 164.61L461.277 154.267L461.057 154.047H460.837L439.06 152.066H438.62L438.4 152.286L434.221 155.367L423.442 161.749L422.782 161.969L423.002 170.992L415.963 182.215L401.885 182.436H401.445L401.225 182.876L396.606 188.817L396.166 189.258L395.726 189.698L395.506 189.918L383.628 204.882L377.908 204.662H377.468L377.249 204.882L369.55 210.164L364.05 209.944H363.39L363.17 210.604L360.971 216.326L358.551 220.947L353.492 224.688L353.932 225.569L356.131 229.75L353.932 231.951L343.813 230.41L342.933 230.19L342.713 231.07L338.754 242.074L336.774 256.598L331.275 258.799L303.339 255.058L290.58 255.498H290.14H289.7L280.242 255.938H280.022H279.802L267.923 260.339L267.264 260.559V261.22L266.604 270.682V270.902V271.123L267.484 274.864L265.724 276.404L263.744 271.123L263.524 270.462H262.864L258.685 270.242L251.866 263.64L251.206 262.98L250.546 263.42L241.967 268.922L236.248 269.582L235.148 269.802L229.649 270.462H229.429L229.209 270.682L220.41 277.504H220.19V277.725L215.351 284.327L205.892 283.886H205.232L204.792 284.547L199.073 294.23L192.474 295.11H191.594V295.99L191.374 303.252L181.255 309.854L180.815 310.294V310.955L181.475 321.078V321.518L181.695 321.738L185.435 326.579L181.035 331.861L180.595 332.301L180.815 332.741L181.915 337.583L182.135 338.243L182.795 338.463L188.954 340.004L190.274 346.165L188.294 349.686L188.074 350.127L187.634 350.787L187.414 351.227L186.535 352.987L177.296 358.269L177.076 358.489L176.856 358.709L172.017 366.412L166.957 376.975V377.195V377.415L166.297 385.998V386.218V386.438L167.617 391.059L164.318 395.24L164.098 395.46V395.901L163.878 398.982L156.399 398.321L151.339 393.48L151.779 388.858V387.978L150.899 387.758L145.4 386.658L144.52 386.438L144.08 387.318L141.001 394.8L129.782 404.483L129.342 404.923V405.584L130.222 411.965L130.442 412.846H131.322L137.041 412.626L141.001 415.927L142.541 423.629L142.761 424.509H143.64L148.7 423.849L153.759 424.729V427.59L146.5 437.273L146.06 437.933H145.84H145.62H145.4L140.561 439.914L140.121 440.134L139.901 440.574L137.921 444.755L135.062 445.416L134.402 445.636V446.516L134.182 452.238V452.898L134.842 453.118L139.021 455.539L137.921 465.662V466.102L137.701 466.322L133.522 471.384L131.542 474.465L131.322 474.905V475.345L132.202 479.746V480.186L132.642 480.406L136.161 482.167L135.721 488.109V488.769L136.381 489.209L146.72 495.811L146.94 507.915V508.135L147.16 508.355L155.739 524.64L155.959 524.86L156.399 525.52L158.598 529.921L158.158 539.604V540.705V541.145V542.905L150.24 542.685H149.58L149.36 543.125L146.28 547.967L142.101 548.407H141.661L141.441 548.847L136.161 558.31L128.023 561.391L121.863 552.368L121.643 551.928H121.203L105.806 549.947H105.366L104.926 550.388L96.7868 556.77L95.9069 557.65L97.0068 558.31L111.085 566.673L108.445 568.433L100.966 563.812L100.306 563.372L99.6464 563.812L95.247 567.333V567.113V566.893L95.0271 566.673L84.4685 557.21L82.9287 555.889L82.7087 558.09L81.3889 570.414L76.9895 568.213L76.7695 567.993H76.5496L65.5511 568.653H65.1111L64.8912 569.093L61.8116 573.054L54.5526 560.951L53.8927 559.85L53.0128 560.731L46.6337 566.452L46.1937 566.893V567.333L46.8536 577.016L43.994 580.317L43.5541 580.757L43.774 581.417L45.3138 586.038L45.5338 586.259L49.7132 589.339L49.4933 595.941V596.162V596.382L52.1329 607.605L51.253 618.168L49.2733 635.554V635.994L49.4933 636.434L51.693 639.515L52.1329 640.175L53.0128 639.735L56.7523 638.194L59.3919 642.376L59.8319 643.036L60.0518 643.256L66.8709 654.919V662.182L67.0909 662.402L74.1299 670.104L75.0098 670.984L80.729 677.366L80.949 686.169V686.389L81.1689 686.609L82.9287 689.47L83.1487 689.69V690.13L83.5886 700.033V700.693L84.2485 700.913L95.247 706.195V707.295V707.515V707.956V708.616L95.467 710.816V711.257L95.9069 711.477L98.9865 713.677L99.2065 713.897V714.117L101.186 719.619L102.066 723.8L98.9865 726.881L98.5466 727.322V727.762L99.2065 736.344V736.564L99.4265 736.784L107.345 748.008L106.685 759.671L105.366 765.393L105.146 765.833L105.586 766.273L112.845 775.076L113.285 775.736L113.944 775.516L117.464 773.976L117.904 773.756L118.124 773.536L119.664 770.895L122.963 772.655L127.583 774.196L128.023 774.416L128.462 774.196L133.962 770.675L134.402 770.455V754.83L138.141 733.703L151.779 720.719L151.999 720.499V720.059L153.099 706.195V705.975V705.755L151.779 700.473L157.938 695.852L158.158 695.632H158.378L167.397 695.852H167.617H167.837L176.416 691.891H176.636L176.856 692.111L185.875 695.412H186.095H186.315L210.511 694.752H211.831L211.611 693.431L209.851 685.069L214.911 684.188L215.571 683.968L215.791 683.308L220.41 657.56V657.12L220.19 656.68L216.23 651.178L216.011 650.958H215.571L210.511 649.858L211.171 646.337L218.43 639.735L219.09 639.075L218.43 638.194L212.491 630.052L214.691 628.952L218.87 627.191L219.31 626.971L219.75 626.751L229.429 623.45L230.089 623.23L230.309 622.57L231.628 615.527L239.327 611.126L248.126 608.925L251.206 608.045L256.265 612.887L255.825 617.948L254.505 622.349L254.285 622.79L254.505 623.23L257.585 628.952L258.025 629.832L258.905 629.392L265.284 626.531L265.724 626.311L265.944 625.871L269.023 619.709L272.323 616.188L280.682 617.728H281.122L281.562 617.508L286.181 613.767L288.821 613.547L291.02 615.307L291.24 615.527H291.68L300.479 614.867L307.078 613.107L310.818 612.226L310.598 618.388V618.608V618.828L314.117 627.191L314.557 628.071L315.437 627.851L319.396 626.971H319.616L319.836 626.751L322.256 624.55L327.095 626.751L326.875 629.832L325.336 633.353L325.116 634.013L325.556 634.453L327.535 636.654L327.755 636.874H327.975L333.255 638.635L335.454 646.117L337.654 655.8L335.234 661.742L335.014 662.182L337.874 667.683L338.314 668.784L339.414 668.123L345.573 664.382L347.553 665.043L349.312 668.784L350.632 676.046V676.486L351.072 676.706L355.471 679.787L356.131 680.227L356.791 679.787L361.631 676.486L366.03 676.706L374.389 680.447L374.169 683.968V684.188L374.389 684.408L376.369 687.93L376.589 688.37H377.029L381.648 689.25H382.308L382.748 688.81L385.827 685.509L389.127 688.81H389.347L393.966 691.671L392.866 698.933V699.153V699.373L393.966 703.994V704.214L394.186 704.435L399.246 710.156L399.465 710.376H399.685L404.085 711.917L404.525 712.137L404.965 711.917L408.924 709.496L411.564 710.376L413.983 715.218L414.203 715.658L414.643 715.878L425.202 719.399L425.642 719.619L426.082 719.399L430.701 715.878H430.921V715.658L435.541 709.056L435.98 708.616L435.761 707.956L427.622 690.13L427.402 689.91L430.481 685.949L440.82 685.069H441.7V684.188L442.58 676.926L446.979 674.505L451.818 674.725L458.197 679.787L458.857 680.447L459.517 679.787L463.477 676.046L464.137 675.386L463.697 674.725L458.857 666.803L456.658 659.541L461.497 654.479L465.456 653.379L472.496 660.861L472.715 661.081H473.155L488.553 661.962H488.993H489.433L505.491 665.703L514.51 671.424L515.17 671.865L515.83 671.424L520.669 667.463L528.148 671.424H528.368H528.588L555.644 676.706H556.084L556.304 676.486L566.203 672.085L566.643 671.865H566.863L574.342 671.645L580.721 682.208L580.941 682.648H581.381L586.66 683.528H587.32L587.76 683.748L591.279 684.849L591.499 691.01L589.3 693.651L588.86 694.091L589.08 694.752L590.619 699.373L585.34 705.535L584.9 705.975L585.12 706.415L586.22 711.257L586.44 711.917L587.1 712.137L598.758 714.778L599.198 720.719V721.6H600.078L606.017 721.82L610.197 722.92L613.936 727.101L608.217 731.943L607.777 732.163V738.765L609.097 738.325L615.256 736.344L620.535 739.205L620.975 739.425H621.415L626.474 738.325H626.694L626.914 738.105L631.094 734.584L643.192 732.383H643.632H644.072L656.61 732.603L652.211 737.225L651.551 737.885L651.991 738.545L664.529 759.011L664.749 759.231V759.671L678.607 826.352L678.827 827.452L679.927 827.232L687.406 826.132H687.846L688.066 825.692L692.685 818.869L696.205 820.41L697.525 827.672V828.112L697.965 828.332L713.803 836.915L714.243 837.135L714.682 836.915L726.561 832.514L732.5 835.154L737.119 844.617L737.339 845.057V845.498L738.439 855.401V856.061L738.879 856.281L747.458 861.122L747.678 870.365V871.245L748.558 871.465L757.357 873.446L760.876 877.847L761.536 878.508L762.416 878.067L771.655 873.226L773.414 879.168V879.388V879.608L780.014 889.291L780.234 889.731H780.673L791.012 890.831H791.672L791.892 890.171L794.752 883.789L807.95 883.349H808.39L808.61 883.129L817.848 876.307L818.288 876.087L818.728 875.867L855.463 862.003L868.002 861.122L869.981 863.983L870.201 864.423H870.641L889.779 868.605L891.098 876.747V877.187L891.538 877.407L899.017 881.148H899.237H899.457L920.354 883.349L928.273 884.449L932.233 888.191L932.673 888.631L933.333 888.411L939.932 886.21H940.152L940.372 885.99L946.311 880.928L946.531 880.708V880.488L950.93 869.925L951.15 869.265L950.71 868.825L943.891 860.462L944.771 848.358L948.73 847.038L949.39 846.818V846.158L949.61 841.096L954.67 840.876H955.55L957.309 834.054L981.286 843.737L1003.06 848.799L1007.46 865.964L1007.68 866.404L1008.12 866.624L1024.4 875.207L1024.62 875.427H1024.84L1036.28 875.207H1036.5L1036.72 874.987L1052.78 865.524L1064.87 869.485H1065.09H1065.31L1077.85 868.605L1080.93 874.106L1081.15 874.546H1081.81L1089.51 874.766H1090.39H1090.61L1094.79 874.987L1099.41 883.569L1099.63 884.009H1100.29L1137.9 887.53H1138.34L1138.56 887.31L1163.64 872.126L1171.34 871.906H1172L1172.22 871.245L1174.64 863.103L1186.52 852.1L1202.8 851.219L1207.64 855.841L1208.3 856.501L1208.95 855.841L1215.77 849.679L1245.69 854.52L1246.57 854.74L1246.79 853.86L1250.97 842.417L1261.09 835.374L1261.75 834.934L1261.53 834.054L1257.35 823.711L1261.75 795.542L1269.23 788.06L1269.67 787.62L1269.45 786.96L1264.39 773.095L1264.17 772.435H1263.51L1254.27 771.555L1261.09 758.791L1274.51 749.548L1274.95 749.328L1275.39 749.108L1294.52 739.205L1309.04 744.267H1309.26H1309.48L1327.08 741.406L1353.04 767.154L1385.81 801.044L1386.25 801.484L1386.91 801.264L1399.45 796.202L1407.15 799.724L1407.59 799.944L1408.03 799.724L1413.31 797.083L1423.87 800.384H1424.09H1424.31L1430.24 799.724L1438.82 813.148V813.368H1439.04L1448.28 821.51L1448.72 821.95L1449.38 821.73L1468.96 812.267L1469.4 812.047L1469.62 811.607L1472.04 803.685L1486.34 787.62L1493.82 784.099L1501.08 795.982L1498.44 804.785V805.225L1498.66 805.665L1503.27 819.089L1503.49 819.31V819.75L1502.39 853.2V853.42L1502.61 853.64L1507.89 862.443L1486.12 864.203H1485.46L1485.24 864.863L1477.54 881.809L1477.32 882.469L1477.76 882.909L1499.32 905.136L1499.76 913.058L1499.98 915.259L1501.51 913.718L1513.17 902.495L1533.41 902.715H1533.85L1534.07 902.495L1549.03 890.391L1549.25 890.171V889.951L1558.05 872.126V871.906V871.685L1562.45 822.831L1568.39 797.303V797.083V796.863L1564.43 766.934V766.493V766.053L1567.07 732.163V731.943V731.723L1563.33 721.16L1546.61 687.269V687.049L1541.33 680.667L1536.49 657.12V656.9L1533.85 650.738L1547.71 658.22L1552.99 672.305V672.525V672.745L1561.35 683.308L1571.47 699.373L1578.72 711.037V711.257L1578.94 711.477L1587.08 717.639L1589.5 724.901L1591.7 731.503L1591.92 731.943L1592.36 732.163L1602.26 736.784L1603.58 746.467V746.687L1603.8 746.907L1614.36 760.332L1616.12 762.532L1616.34 759.891L1617.22 748.008V747.788V747.568L1615.9 739.865L1623.16 739.425H1623.38H1623.6L1626.24 738.105L1633.5 741.846L1636.36 743.386L1635.04 740.526L1628.66 727.322L1628.44 726.661H1618.76L1609.3 722.48L1598.52 714.778L1591.48 696.732L1587.74 685.729L1595.44 681.328L1611.28 680.447L1614.36 680.227L1611.72 678.467L1573.45 655.8L1548.15 632.913L1536.49 610.906L1536.27 610.686L1536.05 610.466L1519.99 599.463L1512.73 590.22L1512.29 589.56L1511.63 590L1506.57 592.2L1506.13 592.42L1505.91 592.861L1504.81 598.362L1504.59 599.022L1505.25 599.463L1514.49 605.844L1519.11 612.887L1517.13 615.527L1513.17 614.647L1512.07 614.427L1511.85 615.527L1510.31 622.129L1510.09 622.79L1510.75 623.23L1519.77 630.052L1527.69 648.317L1517.13 643.916L1513.39 639.515L1516.91 632.693L1517.35 631.592L1516.25 631.152L1507.01 627.411H1506.79L1487.66 623.89H1487.22L1487 624.11L1472.04 631.812L1471.6 632.032L1471.38 632.473L1466.76 652.939L1461.92 646.557L1461.04 645.457L1460.16 646.557L1454.22 654.259L1448.94 638.635L1448.5 637.314L1447.4 637.974L1435.08 645.457L1425.85 643.916L1426.29 634.893L1439.92 600.563V600.343V600.123L1443.44 565.792L1447.4 549.287V549.067V548.847L1444.1 535.423L1448.5 523.319V523.099V522.879L1446.52 510.115L1474.68 482.387L1483.26 483.927L1484.14 484.147L1484.36 483.267L1485.24 479.746L1485.46 479.306L1485.24 478.866L1483.26 475.785L1486.34 473.804L1486.56 473.584L1487.22 473.144L1494.92 468.083L1499.98 463.901L1507.01 462.141L1507.89 461.921L1507.67 461.04L1505.47 447.396L1517.13 443.655H1517.35L1517.57 443.435L1527.03 435.072L1533.41 434.852L1528.13 442.555L1527.69 443.435L1528.35 444.095L1534.73 449.597L1535.61 450.257L1536.27 449.377L1545.51 439.034L1545.73 438.814V438.594L1547.93 422.749L1555.63 419.888L1555.85 419.668L1556.07 419.448L1562.67 410.865L1563.33 409.985L1562.45 409.325L1555.63 404.263L1554.75 403.603L1554.09 404.483L1548.81 411.085L1543.53 406.244L1541.77 376.975V376.755V376.535L1536.49 359.149L1538.25 346.826L1548.37 332.301L1553.87 332.081H1554.53L1554.75 331.421L1556.95 324.819L1568.17 340.004L1568.61 340.444H1569.27L1577.84 338.903L1578.72 338.683V337.803L1579.38 331.421V331.201V330.981L1577.4 317.997L1575.2 308.974L1580.48 303.913L1581.14 303.252L1580.48 302.372L1566.19 285.207L1569.27 274.864L1579.82 271.123L1574.11 279.705L1573.89 280.145V280.585L1575.64 289.168V289.608L1576.08 289.828L1587.3 297.531L1587.52 297.751H1587.74L1591.92 297.971L1591.7 305.013V305.893L1592.58 306.113L1596.54 306.993L1592.14 329V329.44L1592.36 329.88L1597.42 338.243L1599.18 364.651L1603.14 381.816L1608.42 398.541L1602.48 404.923L1602.04 405.363L1602.26 406.024L1604.02 412.186L1600.94 416.367L1600.5 417.027L1601.16 417.687L1609.74 427.81L1611.06 443.875V444.315L1611.28 444.535L1623.6 458.4L1624.26 459.06L1638.12 474.685H1638.34L1717.53 527.721L1719.51 529.481ZM1074.77 814.028L1074.55 814.248L1069.27 821.51L1063.33 821.07H1062.45L1062.23 821.95L1060.48 831.193L1055.86 836.255L1040.9 842.857H1040.68H1031.22L1029.46 839.116L1033.42 836.695L1039.36 835.815H1039.58L1039.8 835.595L1051.9 827.232L1052.12 827.012L1052.34 826.792L1056.74 820.19L1065.75 812.047L1065.97 811.827V811.607L1067.95 805.665L1073.23 796.643L1079.61 786.74V786.52L1085.11 771.335L1085.55 770.014L1088.85 760.332L1089.73 757.691L1090.39 755.93L1092.81 741.406L1096.33 735.024L1100.51 735.464L1101.39 740.526L1098.97 753.509V753.73V753.95L1099.85 766.713V766.934L1101.83 773.756L1099.41 780.138L1095.45 783.879L1095.23 784.099V784.319L1093.91 786.74L1093.69 787.18L1093.91 787.62L1095.23 792.021L1093.69 795.982L1089.73 797.083L1089.07 797.303V798.183L1088.85 803.025L1083.35 811.827L1075.21 814.248L1074.77 814.028ZM333.035 318.657L333.255 317.777L333.474 317.557L333.255 317.337L333.474 316.676L334.574 313.816V313.595V313.375L333.914 304.573L336.994 298.411L348.432 286.087L354.812 287.628L356.791 291.149L355.691 297.751L350.852 302.592L342.273 312.275L342.053 312.495V312.715L339.854 320.858L339.634 321.298L335.894 324.819L328.415 324.379L325.556 321.298H327.975H328.415L328.635 321.078L332.595 317.997L333.035 318.657ZM291.46 275.084L291.02 266.281H291.24L298.059 264.961L306.858 266.281L310.158 271.123L309.938 277.064L306.858 280.585L306.638 280.805V281.246L307.078 288.288L306.198 294.23L301.799 297.531L301.579 297.751V297.971L300.259 301.272L291.46 301.492L287.941 296.43L287.721 295.99H278.922L276.942 293.569L291.24 276.184L291.46 275.964V275.084Z" stroke="#00C2FF"/>
<path fill-rule="evenodd" clip-rule="evenodd" d="M108.665 273.983L109.105 274.864L110.205 274.424L122.303 268.042L122.743 267.822V267.161L123.843 244.054V243.834L123.623 243.614L117.904 234.591L116.584 232.611L115.924 234.812L113.724 244.054L109.545 241.193L104.926 227.989L104.486 226.669L103.386 227.329L97.8866 230.85L90.1877 230.41L88.4279 230.19L89.3078 231.951L108.665 273.983Z" stroke="#00C2FF"/>
<path fill-rule="evenodd" clip-rule="evenodd" d="M50.3731 551.488L36.295 533.002L44.6539 509.455L37.3949 503.513L32.1156 507.034L11.6584 492.95L8.13889 498.452L9.01877 514.737L1.09985 523.099L3.51952 535.863L17.3776 534.983L31.8956 553.469L42.8941 560.071L43.5541 559.41L50.3731 551.488Z" stroke="#00C2FF"/>
<path fill-rule="evenodd" clip-rule="evenodd" d="M621.195 260.119L621.415 268.922L615.696 274.644L615.256 275.304L615.476 275.964L620.315 286.307L620.535 286.967H621.195L625.595 287.628L625.815 291.369V292.249H626.694L632.634 293.569L636.593 295.55L637.913 296.21L638.133 294.67L640.772 269.362L642.752 259.899L650.671 251.316L660.57 248.015L660.79 247.795L661.01 247.575L664.969 241.854L665.409 241.413L665.189 240.973L663.869 236.792L668.709 239.873L668.929 240.093L669.369 239.873L675.968 239.213H676.628L678.387 234.371L681.907 234.591H683.007V233.491L683.227 229.97L687.406 231.51L688.506 231.951L688.726 230.63L689.386 227.769L692.026 230.63L692.905 231.51L693.565 230.41L696.645 226.449L696.865 226.229V226.009L697.525 221.607L701.924 224.688L702.584 225.129L703.244 224.468L706.544 221.607L713.583 223.148L714.243 223.368L714.682 222.708L720.842 215.886L769.235 214.785H769.455L769.675 214.565L781.553 208.183L781.993 207.963V207.523L783.313 198.72L783.533 198.28L783.093 197.84L778.254 191.898L777.814 191.458H777.154L765.276 194.539L764.836 194.759L764.616 195.199L762.856 198.72L743.938 197.18L735.36 190.138L734.92 189.478L734.26 189.918L727.001 194.099L719.742 190.798L719.082 190.578L718.642 191.018L709.183 197.18H701.044L700.824 197.4L697.525 200.261L692.905 195.199L691.366 193.659L690.926 195.64L688.506 206.643L683.227 206.863L682.347 207.083V207.743L681.687 211.925L667.609 216.326L662.55 214.125L661.89 213.685L661.45 214.345L657.93 218.306L657.27 219.187L661.67 223.368L656.83 227.989L647.812 224.248L646.492 223.588L646.272 224.908L645.172 231.51L639.013 231.07H637.913V232.171L637.693 237.232L628.894 241.854L623.175 239.873L622.735 239.653L622.295 240.093L615.476 245.155L615.036 245.375V245.815L614.816 253.297V253.737L615.036 254.177L621.195 260.119Z" stroke="#00C2FF"/>
<path fill-rule="evenodd" clip-rule="evenodd" d="M750.098 90.6676L749.878 91.7679L748.998 94.8489L748.778 95.7291L749.438 96.1693L752.737 98.1499L754.277 99.0302V97.2696L754.497 93.0883L754.717 92.2081L753.837 91.988L751.197 91.1077L750.098 90.6676Z" stroke="#00C2FF"/>
<path fill-rule="evenodd" clip-rule="evenodd" d="M614.156 269.142V271.122L615.916 270.022L619.435 267.381L619.875 266.941V259.459H619.215L614.816 258.359L613.276 257.918L613.496 259.459L614.156 269.142Z" stroke="#00C2FF"/>
<path fill-rule="evenodd" clip-rule="evenodd" d="M647.812 306.773L646.712 306.994L638.793 308.974L638.133 309.194L637.913 309.854L636.593 317.557V317.997L636.813 318.437L641.872 326.8L642.092 327.46L642.752 327.24L649.131 326.579H650.011L650.231 325.479L650.451 316.897V316.676V316.456L648.032 307.874L647.812 306.773Z" stroke="#00C2FF"/>
</svg>
